<?xml version="1.0" standalone="no"?>
<!DOCTYPE svg PUBLIC "-//W3C//DTD SVG 20010904//EN"
 "http://www.w3.org/TR/2001/REC-SVG-20010904/DTD/svg10.dtd">
<svg version="1.0" xmlns="http://www.w3.org/2000/svg"
 width="738.000000pt" height="680.000000pt" viewBox="0 0 738.000000 680.000000"
 preserveAspectRatio="xMidYMid meet">
<metadata>
Created by potrace 1.16, written by Peter Selinger 2001-2019
</metadata>
<g transform="translate(0.000000,680.000000) scale(0.100000,-0.100000)"
fill="#000000" stroke="none">
<path d="M17 4838 c-4 -1073 -7 -2596 -7 -3383 l0 -1432 1943 -6 c1068 -4
2721 -7 3673 -7 l1731 0 7 3381 c3 1860 5 3383 4 3384 -2 1 -1655 5 -3674 9
l-3671 6 -6 -1952z m3686 1215 c6 -18 27 -55 93 -164 19 -31 34 -59 34 -63 0
-3 15 -29 33 -58 31 -48 269 -459 329 -569 14 -25 45 -79 70 -120 24 -41 76
-130 115 -199 80 -141 282 -490 412 -713 47 -82 99 -172 114 -200 16 -29 42
-73 58 -100 16 -26 29 -51 29 -56 0 -5 6 -16 14 -23 13 -13 44 -67 89 -157 11
-20 27 -45 37 -56 10 -11 21 -30 25 -42 3 -13 12 -29 18 -35 7 -7 32 -51 56
-98 25 -47 47 -87 50 -90 3 -3 15 -23 27 -45 33 -66 69 -130 74 -135 3 -3 10
-14 15 -25 41 -86 102 -184 112 -180 7 2 10 -2 7 -9 -3 -7 32 -77 77 -157 45
-79 94 -166 109 -194 15 -27 62 -111 105 -185 43 -74 86 -151 97 -170 18 -35
48 -87 102 -185 16 -27 38 -66 51 -85 12 -19 58 -98 102 -175 44 -77 101 -175
125 -217 25 -43 49 -74 53 -70 5 4 5 -1 2 -10 -4 -10 -2 -18 3 -18 6 0 10 -5
10 -11 0 -6 28 -59 61 -117 93 -161 107 -186 108 -196 1 -5 -1043 -8 -2527 -7
-2423 2 -3150 6 -3159 15 -3 2 14 37 38 78 23 40 52 91 64 113 13 22 80 139
150 260 70 121 141 245 158 275 17 30 43 75 59 100 15 25 33 56 40 70 7 14 29
52 49 85 33 56 51 87 108 190 13 22 35 60 50 85 26 42 135 232 172 299 8 16
34 60 56 97 23 38 52 90 66 116 14 25 36 63 50 85 13 21 38 63 54 93 17 30 85
150 153 265 156 268 156 268 181 313 32 56 265 458 416 717 227 387 499 858
594 1025 8 14 19 32 25 40 7 8 24 38 38 65 15 28 31 57 36 65 44 70 100 169
100 174 0 4 17 35 38 69 73 118 131 218 137 237 8 25 31 26 38 3z"/>
<path d="M3659 5660 c-8 -16 -37 -69 -65 -117 -60 -103 -160 -277 -199 -348
-16 -27 -57 -98 -92 -156 -34 -59 -63 -110 -63 -113 0 -4 -29 -55 -64 -114
-35 -59 -108 -183 -161 -277 -54 -93 -116 -201 -139 -240 -22 -38 -43 -74 -45
-80 -2 -5 -13 -26 -26 -45 -25 -39 -236 -402 -270 -465 -35 -64 -50 -90 -55
-95 -3 -3 -16 -25 -29 -50 -24 -45 -47 -85 -135 -232 -25 -43 -46 -82 -46 -86
0 -5 -9 -21 -21 -36 -11 -14 -38 -57 -58 -94 -75 -135 -94 -167 -101 -177 -4
-5 -19 -30 -32 -55 -33 -59 -54 -95 -123 -215 -32 -55 -69 -120 -83 -145 -13
-24 -32 -57 -43 -71 -10 -15 -19 -30 -19 -33 0 -3 -18 -35 -40 -71 -22 -36
-40 -70 -40 -75 0 -6 -4 -10 -10 -10 -5 0 -10 -4 -10 -10 0 -5 -22 -47 -49
-92 -26 -46 -50 -87 -52 -93 -2 -5 -41 -71 -86 -147 -44 -75 -84 -145 -88
-157 -3 -12 -11 -21 -16 -21 -5 0 -9 -4 -9 -10 0 -5 -13 -31 -28 -57 -16 -26
-48 -84 -72 -128 -23 -44 -48 -87 -55 -95 -7 -8 -26 -40 -42 -71 l-31 -56
1237 -7 c1456 -8 3781 -9 3789 -2 3 3 0 11 -5 18 -6 7 -33 54 -61 103 -27 50
-60 108 -72 130 -13 22 -34 60 -48 84 -14 25 -38 67 -53 93 -16 27 -29 51 -29
54 0 3 -15 28 -33 57 -19 29 -45 72 -59 97 -14 25 -68 119 -120 210 -53 91
-105 182 -117 203 -29 51 -50 88 -108 187 -102 175 -242 417 -268 465 -16 28
-40 68 -54 90 -14 22 -32 54 -41 70 -9 17 -88 155 -175 307 -88 153 -169 295
-181 315 -29 52 -280 496 -316 558 -16 28 -34 61 -41 75 -6 14 -14 27 -17 30
-3 3 -16 25 -29 50 -13 25 -33 63 -45 85 -11 22 -26 45 -31 51 -6 6 -19 30
-29 53 -11 22 -23 41 -28 41 -4 0 -8 9 -8 19 0 11 -3 21 -8 23 -8 3 -92 143
-92 153 0 4 -8 19 -18 33 -11 15 -35 56 -54 92 -20 36 -49 88 -66 115 -17 28
-44 75 -59 105 -15 30 -35 66 -44 80 -9 14 -30 50 -46 80 -97 174 -139 245
-149 247 -6 1 -17 -11 -25 -27z m41 -497 c0 -14 33 -135 140 -513 42 -148 171
-616 175 -634 1 -6 4 -18 7 -26 3 -8 10 -35 17 -60 6 -25 13 -52 16 -60 16
-54 51 -184 81 -300 19 -74 39 -144 44 -155 5 -11 11 -37 15 -57 3 -21 10 -40
14 -43 5 -2 38 55 73 128 156 318 182 367 193 367 7 0 32 -39 55 -87 24 -49
47 -90 51 -93 4 -3 20 -32 36 -65 25 -51 59 -114 81 -150 4 -5 7 -15 8 -22 1
-7 12 -26 24 -43 12 -16 18 -30 15 -30 -4 0 3 -12 14 -26 12 -15 21 -30 21
-34 0 -4 41 -83 91 -176 51 -93 112 -207 137 -254 24 -47 52 -96 62 -110 9
-14 27 -47 39 -75 13 -27 27 -52 30 -55 4 -3 18 -28 31 -57 13 -29 28 -49 33
-46 6 3 7 1 3 -6 -4 -6 2 -26 12 -44 11 -17 38 -66 59 -107 96 -184 131 -243
173 -293 37 -46 60 -67 70 -67 6 0 18 -7 26 -15 9 -8 24 -15 34 -15 17 0 40
-26 40 -44 0 -3 -21 -6 -47 -6 -54 0 -115 31 -156 81 -15 18 -27 28 -27 22 0
-6 24 -32 52 -57 l53 -46 -198 0 c-165 0 -197 2 -197 15 0 7 7 18 16 23 17 10
23 60 8 71 -5 3 -16 20 -24 36 -8 17 -35 68 -61 115 -26 47 -73 135 -105 195
-101 192 -121 225 -128 218 -4 -4 -4 0 0 10 4 11 1 17 -7 17 -7 0 -9 3 -6 7 4
3 3 11 -2 17 -4 6 -33 58 -64 116 -30 58 -76 143 -101 190 -26 47 -69 130 -97
184 l-51 100 -34 -55 c-18 -30 -34 -59 -34 -64 0 -6 -16 -41 -36 -78 -19 -37
-32 -67 -27 -67 4 0 2 -4 -6 -9 -20 -13 -17 -44 17 -161 17 -58 38 -130 46
-160 31 -119 147 -539 165 -600 11 -36 25 -84 31 -107 15 -61 55 -146 76 -164
11 -9 29 -20 42 -23 26 -9 29 -26 5 -26 -10 -1 -87 -2 -171 -4 -154 -4 -185 3
-147 30 24 18 17 61 -39 256 -24 84 -65 230 -91 323 -81 291 -91 323 -99 299
-7 -22 3 -61 118 -478 36 -131 66 -253 66 -271 0 -53 -37 -97 -99 -118 -49
-16 -56 -16 -70 -3 -19 20 -9 29 46 45 85 24 90 56 39 236 -19 66 -57 206 -86
310 -29 105 -54 192 -56 194 -3 4 -194 -386 -197 -404 -1 -5 -5 -12 -8 -15 -6
-5 -159 -317 -227 -463 -20 -42 -40 -76 -46 -74 -5 2 -33 49 -61 106 -28 56
-54 98 -58 94 -5 -4 -5 0 -2 8 3 9 -21 70 -56 140 -34 68 -87 178 -119 244
-32 66 -79 164 -104 218 -26 54 -49 97 -51 95 -9 -9 -158 -557 -161 -594 -4
-39 -1 -45 28 -68 18 -13 47 -26 63 -29 33 -4 48 -40 21 -50 -26 -10 -114 22
-135 49 -42 54 -39 81 38 359 11 39 41 145 66 238 28 99 44 174 40 185 -6 13
-10 8 -20 -23 -22 -69 -53 -174 -103 -355 -27 -96 -63 -225 -81 -286 -36 -128
-36 -137 -16 -154 8 -7 15 -19 15 -26 0 -11 -33 -14 -175 -14 -143 0 -175 3
-175 14 0 8 12 19 28 25 70 26 89 69 176 391 14 52 66 238 115 413 l90 318
-89 182 -89 182 -17 -40 c-9 -22 -24 -51 -34 -65 -9 -14 -43 -74 -75 -135 -31
-60 -65 -123 -75 -140 -9 -16 -39 -70 -65 -120 -26 -49 -51 -94 -56 -99 -5 -6
-9 -18 -9 -28 0 -10 -4 -18 -9 -18 -5 0 -11 -8 -14 -17 -3 -10 -29 -58 -57
-108 -28 -49 -70 -129 -95 -176 -24 -48 -54 -104 -66 -125 -88 -157 -103 -199
-74 -210 24 -9 17 -33 -10 -40 -14 -3 -100 -3 -192 1 -93 3 -198 6 -235 5 -38
0 -68 3 -68 7 1 19 28 41 59 48 42 9 146 108 137 130 -3 8 -1 14 5 12 6 -1 22
18 36 43 49 87 121 216 173 315 29 55 79 147 110 205 32 58 81 150 110 205 29
55 56 105 60 110 4 6 31 55 60 110 46 87 159 296 250 460 15 28 51 95 80 150
65 124 69 129 86 114 8 -6 14 -18 14 -25 0 -8 5 -14 10 -14 6 0 10 -6 10 -13
0 -14 61 -148 80 -177 6 -8 15 -28 22 -45 32 -82 137 -278 142 -265 6 18 41
151 91 345 56 217 83 315 100 375 9 30 20 73 26 95 24 94 97 343 185 630 54
176 124 407 135 443 11 32 29 35 29 5z"/>
<path d="M3671 4366 c-7 -16 -21 -64 -32 -105 -11 -42 -28 -100 -38 -131 -18
-53 -34 -112 -32 -118 1 -1 -5 -17 -12 -35 -8 -17 -12 -38 -10 -44 3 -7 -1
-13 -7 -13 -7 0 -10 -7 -7 -15 4 -8 2 -17 -3 -20 -6 -4 -10 -19 -10 -35 0 -16
-5 -32 -11 -35 -6 -4 -8 -13 -5 -21 3 -7 1 -16 -3 -19 -8 -4 -46 -136 -46
-160 0 -5 -3 -12 -6 -15 -5 -5 -55 -176 -62 -215 -2 -11 -7 -27 -10 -35 -3 -8
-15 -49 -27 -90 -11 -41 -27 -97 -35 -125 -8 -27 -16 -59 -18 -70 -2 -11 -9
-33 -15 -48 -14 -34 -15 -64 -3 -71 5 -3 11 4 14 17 3 12 33 121 67 242 137
490 214 766 245 880 52 191 66 235 75 235 5 0 18 -30 29 -67 77 -255 95 -312
99 -309 3 4 -103 395 -118 431 -7 18 -9 18 -19 -9z"/>
<path d="M3678 4134 c-6 -9 -34 -103 -48 -159 -5 -16 -24 -82 -43 -145 -19
-63 -42 -144 -52 -180 -9 -36 -21 -76 -26 -90 -4 -14 -17 -59 -28 -100 -11
-41 -33 -122 -49 -180 -16 -58 -30 -108 -31 -112 -1 -4 -3 -13 -6 -20 -14 -42
-65 -229 -70 -259 -7 -36 9 -82 40 -119 7 -8 16 -26 20 -40 8 -26 71 -160 200
-425 l74 -150 49 105 c27 58 109 226 181 373 72 148 131 275 131 282 0 7 -57
217 -126 467 -69 249 -145 522 -168 607 -24 85 -45 150 -48 145z"/>
</g>
</svg>
